HIERARCHY
ROOT Hips
{
	OFFSET 0.00000 0.00000 0.00000
	CHANNELS 6 Xposition Yposition Zposition Zrotation Yrotation Xrotation 
	JOINT LHipJoint
	{
		OFFSET 0 0 0
		CHANNELS 3 Zrotation Yrotation Xrotation
		JOINT LeftHip
		{
			OFFSET 1.26600 -1.82114 0.91038
			CHANNELS 3 Zrotation Yrotation Xrotation
			JOINT LeftKnee
			{
				OFFSET 2.50076 -6.87080 0.00000
				CHANNELS 3 Zrotation Yrotation Xrotation
				JOINT LeftAnkle
				{
					OFFSET 2.57364 -7.07102 0.00000
					CHANNELS 3 Zrotation Yrotation Xrotation
					JOINT LeftToe
					{
						OFFSET 0.13572 -0.37290 1.97004
						CHANNELS 3 Zrotation Yrotation Xrotation
						End Site
						{
							OFFSET 0.00000 -0.00000 1.01383
						}
					}
				}
			}
		}
	}
	JOINT RHipJoint
	{
		OFFSET 0 0 0
		CHANNELS 3 Zrotation Yrotation Xrotation
		JOINT RightHip
		{
			OFFSET -1.20803 -1.82114 0.91038
			CHANNELS 3 Zrotation Yrotation Xrotation
			JOINT RightKnee
			{
				OFFSET -2.54916 -7.00377 0.00000
				CHANNELS 3 Zrotation Yrotation Xrotation
				JOINT RightAnkle
				{
					OFFSET -2.56374 -7.04382 0.00000
					CHANNELS 3 Zrotation Yrotation Xrotation
					JOINT RightToe
					{
						OFFSET -0.23520 -0.64621 2.09921
						CHANNELS 3 Zrotation Yrotation Xrotation
						End Site
						{
							OFFSET -0.00000 -0.00000 1.10065
						}
					}
				}
			}
		}
	}
	JOINT lowerback
	{
		OFFSET 0 0 0
		CHANNELS 3 Zrotation Yrotation Xrotation
		JOINT Chest
		{
			OFFSET 0.05492 2.10797 -0.12074
			CHANNELS 3 Zrotation Yrotation Xrotation
			JOINT Chest2
			{
				OFFSET 0.04577 2.11592 -0.04483
				CHANNELS 3 Zrotation Yrotation Xrotation
				JOINT lowerneck
				{
					OFFSET 0 0 0
					CHANNELS 3 Zrotation Yrotation Xrotation
					JOINT Neck
					{
						OFFSET -0.10759 1.80167 0.15770
						CHANNELS 3 Zrotation Yrotation Xrotation
						JOINT Head
						{
							OFFSET 0.09237 1.77509 -0.40848
							CHANNELS 3 Zrotation Yrotation Xrotation
							End Site
							{
								OFFSET 0.03805 1.84093 -0.15754
							}
						}
					}
				}
				JOINT LeftCollar
				{
					OFFSET 0 0 0
					CHANNELS 3 Zrotation Yrotation Xrotation
					JOINT LeftShoulder
					{
						OFFSET 3.42372 1.09575 -0.28209
CHANNELS 3 Zrotation Xrotation Yrotation
						JOINT LeftElbow
						{
OFFSET 0 -4.956810 0.000000
CHANNELS 3 Zrotation Xrotation Yrotation
							JOINT LeftWrist
							{
OFFSET 0 -3.409150 0.000000
CHANNELS 3 Zrotation Xrotation Yrotation
								JOINT lhand
								{
									OFFSET 0 0 0
CHANNELS 3 Zrotation Xrotation Yrotation
									JOINT LFingers
									{
OFFSET 0 -0.616400 0.000000
CHANNELS 3 Zrotation Xrotation Yrotation
										End Site
										{
OFFSET 0 -0.496960 0.000000
										}
									}
								}
								JOINT LThumb
								{
OFFSET 0 0.000000 0.000000
CHANNELS 3 Zrotation Xrotation Yrotation
									End Site
									{
OFFSET 0 -0.504550 0.504550
									}
								}
							}
						}
					}
				}
				JOINT RightCollar
				{
					OFFSET 0 0 0
					CHANNELS 3 Zrotation Yrotation Xrotation
					JOINT RightShoulder
					{
						OFFSET -3.24731 1.15872 -0.32221
CHANNELS 3 Zrotation Xrotation Yrotation
						JOINT RightElbow
						{
OFFSET 0 -5.352000 0.000000
CHANNELS 3 Zrotation Xrotation Yrotation
							JOINT RightWrist
							{
OFFSET 0 -3.437210 -0.000000
CHANNELS 3 Zrotation Xrotation Yrotation
								JOINT rhand
								{
									OFFSET 0 0 0
CHANNELS 3 Zrotation Xrotation Yrotation
									JOINT RFingers
									{
OFFSET 0 -0.720090 0.000000
CHANNELS 3 Zrotation Xrotation Yrotation
										End Site
										{
OFFSET 0 -0.580560 0.000000
										}
									}
								}
								JOINT RThumb
								{
OFFSET 0 0.000000 0.000000
CHANNELS 3 Zrotation Xrotation Yrotation
									End Site
									{
OFFSET 0 -0.589420 0.589420
									}
								}
							}
						}
					}
				}
			}
		}
	}
}
MOTION
Frames: 9
Frame Time: 0.008333333333333333
-13.095000 17.606700 20.864500 -91.589800 87.242000 -87.780800 0.000000 0.000000 0.000000 -18.778200 -1.004200 -11.941500 2.256500 9.381100 26.994800 0.133700 -13.748700 -11.194600 1.984100 8.832800 25.273700 0.000000 0.000000 0.000000 24.169800 6.463900 -12.098700 -3.060000 -10.791500 31.579900 -0.468500 15.738000 -15.471500 -1.193400 -6.931900 19.513900 -0.962900 0.003400 3.175300 2.967000 0.034800 2.369700 3.591200 0.009600 0.650800 -11.764200 -5.616800 -6.685200 5.443000 -5.661800 39.434300 3.790800 -2.779100 15.614700 -0.000000 -0.000000 0.000000 -0.098000 0.351700 -26.317600 16.033100 -25.565500 3.660200 21.053600 6.672900 -20.949800 0.000000 0.000000 0.000000 -7.125000 0.000000 0.000000 -7.749200 52.122300 1.365500 -0.000000 -0.000000 0.000000 -3.568800 -6.382300 24.163000 -16.371500 -26.021800 -3.807500 -21.303700 -14.627400 -11.716900 0.000000 0.000000 0.000000 7.125000 0.000000 -0.000000 4.096000 17.449600 2.686100
-12.992893 17.622108 20.837611 -30.855092 85.236742 -26.968732 0.000000 0.000000 0.000000 -19.815709 0.208230 -11.241215 2.165285 9.202170 26.429726 0.627448 -10.312479 -14.858645 0.891439 6.016967 16.834006 0.000000 0.000000 0.000000 23.215232 7.795287 -11.950273 -3.186848 -10.991516 32.251348 0.055768 19.645989 -13.351011 -1.575282 -7.918385 22.466818 -2.007498 -0.700568 3.171348 2.826586 -0.941562 1.734960 4.065295 -0.482051 0.085107 -14.784226 -9.350690 -3.978489 6.877508 -12.012448 34.438268 3.775595 -5.960346 13.773323 0.000000 0.000000 0.000000 -2.064813 3.680588 -20.960377 17.992181 -28.146311 4.545930 21.384372 6.937600 -21.145245 0.000000 0.000000 0.000000 -7.125000 0.000000 0.000000 -7.482668 52.383874 1.365920 0.000000 0.000000 0.000000 -3.537950 -7.614168 22.413429 -12.949599 -21.212670 -2.435501 -20.489565 -10.353280 -11.890550 0.000000 0.000000 0.000000 7.125000 0.000000 0.000000 4.670029 17.337217 3.076343
-12.931650 17.635247 20.808561 -14.355463 79.168285 -10.000080 0.000000 0.000000 0.000000 -20.326779 0.011490 -10.624049 2.112592 9.096723 26.098488 0.856558 -3.547018 -16.618737 1.863847 8.440431 24.140493 0.000000 0.000000 0.000000 23.035716 10.563732 -12.184218 -3.290346 -11.150807 32.790262 0.832063 23.353732 -9.793073 -1.775010 -8.380643 23.876444 -3.530658 -2.077237 3.483399 3.255810 -2.834374 0.805150 5.460388 -1.408962 -0.783841 -17.320476 -13.512724 1.770464 9.241026 -19.327029 26.537417 4.090978 -9.663047 10.956313 0.000000 0.000000 0.000000 -1.804095 7.979204 -22.210670 18.767657 -29.128889 4.917289 24.025002 0.488646 -22.089753 0.000000 0.000000 0.000000 -7.125000 0.000000 0.000000 -5.100023 53.865678 1.114176 0.000000 0.000000 0.000000 -4.314583 -9.537602 24.231152 -10.849913 -18.057808 -1.729100 -19.857646 -7.126014 -10.714324 0.000000 0.000000 0.000000 7.125000 0.000000 0.000000 5.087643 18.630559 3.208341
-12.872946 17.617916 20.772055 -8.755694 71.587103 -4.270978 0.000000 0.000000 0.000000 -20.989330 1.101873 -10.380789 2.156420 9.184644 26.374535 1.250446 1.281853 -21.630028 0.668025 5.225874 14.554197 0.000000 0.000000 0.000000 22.882613 12.595970 -12.139677 -3.315889 -11.189648 32.922283 1.639692 26.705186 -6.431181 -2.099447 -9.070214 26.015195 -5.359596 -4.190985 4.101242 3.983463 -5.749638 0.386173 7.396639 -2.860703 -0.951935 -18.830176 -17.347741 7.224458 11.621404 -25.652749 18.306565 4.567509 -12.970902 8.544681 0.000000 0.000000 0.000000 -3.487294 11.463720 -20.141948 17.382315 -27.358848 4.261596 21.439904 -1.767492 -19.505467 0.000000 0.000000 0.000000 -7.125000 0.000000 0.000000 -6.912797 50.687346 0.972239 0.000000 0.000000 0.000000 -4.375364 -12.639368 28.923443 -10.807192 -17.991985 -1.715925 -19.472563 -6.063174 -11.125331 0.000000 0.000000 0.000000 7.125000 0.000000 0.000000 5.365768 18.227987 3.433239
-12.819556 17.581868 20.715417 -6.062792 63.825857 -1.140825 0.000000 0.000000 0.000000 -21.846728 2.347293 -10.125157 2.013944 8.894822 25.466990 1.323505 4.703086 -23.883990 1.268387 7.138456 20.126151 0.000000 0.000000 0.000000 22.519405 15.341180 -12.361305 -3.421279 -11.347560 33.461382 2.584441 30.366744 -3.352566 -3.063950 -10.797748 31.600954 -6.331449 -6.218344 4.452807 4.375941 -8.532434 -0.193724 8.459275 -4.241645 -1.085411 -19.502324 -19.972856 10.932014 13.380317 -29.799742 13.085625 4.978338 -15.178451 7.252720 0.000000 0.000000 0.000000 -3.259949 14.129924 -20.982923 15.171607 -24.384157 3.296712 14.116499 2.124209 -19.419671 0.000000 0.000000 0.000000 -7.125000 0.000000 0.000000 -13.945692 49.441809 1.551325 0.000000 0.000000 0.000000 -4.084842 -13.757745 37.165844 -13.735123 -22.354022 -2.727058 -18.663047 -10.568579 -11.195732 0.000000 0.000000 0.000000 7.125000 0.000000 0.000000 5.935967 18.216464 3.803206
-12.779206 17.573422 20.675716 -4.095836 58.031143 0.944931 0.000000 0.000000 0.000000 -22.984559 5.584168 -10.822491 1.874183 8.598829 24.548304 1.324623 5.505860 -24.372270 1.235594 6.955288 19.619160 0.000000 0.000000 0.000000 21.560236 16.619993 -12.834000 -3.483760 -11.439737 33.777734 3.201604 32.062602 -0.481831 -3.555989 -11.542084 34.134229 -7.384215 -8.056613 4.409152 4.802576 -11.052413 -0.210251 9.437016 -5.557222 -0.315527 -18.804229 -20.927926 11.557769 14.397853 -31.015060 9.929626 5.190618 -15.798429 6.388632 0.000000 0.000000 0.000000 -2.000249 13.274805 -20.546690 12.743658 -20.910446 2.361034 6.749664 9.607333 -18.354141 0.000000 0.000000 0.000000 -7.125000 0.000000 0.000000 -20.337305 47.371024 1.239067 0.000000 0.000000 0.000000 -4.341755 -14.112153 42.535119 -17.708470 -27.781140 -4.413048 -19.728039 -15.365176 -11.642111 0.000000 0.000000 0.000000 7.125000 0.000000 0.000000 5.196195 17.664177 3.388515
-12.720792 17.601249 20.635634 -4.321955 54.412694 1.371293 0.000000 0.000000 0.000000 -23.207593 5.678051 -10.849066 1.803309 8.443842 24.070435 1.492018 7.697904 -26.990654 1.312904 7.257818 20.481454 0.000000 0.000000 0.000000 21.276355 16.330057 -13.833827 -3.424842 -11.352859 33.479370 4.541447 35.575596 5.331809 -4.434083 -12.715158 38.313628 -6.799355 -9.191814 4.010927 5.428604 -12.520297 -0.579876 9.688044 -6.303305 -0.147839 -18.779857 -20.914117 12.225886 15.668253 -30.980845 7.287830 5.734088 -15.837065 5.644632 0.000000 0.000000 0.000000 0.448786 11.229111 -17.429155 11.750978 -19.430116 2.018751 5.715248 14.701635 -20.918822 0.000000 0.000000 0.000000 -7.125000 0.000000 0.000000 -22.435706 49.612818 2.672855 0.000000 0.000000 0.000000 -5.678253 -12.671673 42.801379 -20.833102 -31.632999 -5.962134 -22.096004 -20.649662 -11.889137 0.000000 0.000000 0.000000 7.125000 0.000000 0.000000 3.548790 17.193543 2.345737
-12.701032 17.590280 20.630129 -5.516540 53.211441 0.758955 0.000000 0.000000 0.000000 -22.621131 6.859229 -11.947692 1.855094 8.557456 24.420394 1.387312 8.350272 -26.678097 0.819711 5.773450 16.129445 0.000000 0.000000 0.000000 21.775566 15.755458 -14.563873 -3.398137 -11.313312 33.343956 5.127407 36.908894 8.384435 -4.593116 -12.909386 39.031832 -6.142845 -10.027387 4.081773 6.159128 -13.601776 -0.783498 10.091014 -6.855536 -0.135254 -18.360069 -21.443809 13.025554 16.759741 -31.552513 4.477447 6.122727 -16.182174 4.862020 0.000000 0.000000 0.000000 2.738876 9.592900 -13.312595 14.351724 -23.233835 2.966297 14.719904 13.954073 -23.782445 0.000000 0.000000 0.000000 -7.125000 0.000000 0.000000 -15.224692 53.829198 3.359104 0.000000 0.000000 0.000000 -6.112485 -11.407028 37.511597 -20.060578 -30.712591 -5.563494 -23.392237 -21.289966 -12.284250 0.000000 0.000000 0.000000 7.125000 0.000000 0.000000 2.666178 16.641622 1.790860
-12.717599 17.609867 20.624711 -5.754336 52.521503 0.805916 0.000000 0.000000 0.000000 -22.518777 5.710210 -11.668044 1.823856 8.489001 24.209592 1.484697 9.167983 -27.951506 1.531534 7.812112 22.145471 0.000000 0.000000 0.000000 21.758422 16.528483 -15.045793 -3.468586 -11.417518 33.701286 5.053227 36.456640 9.949893 -4.833429 -13.193649 40.097865 -6.228083 -10.234316 4.548596 6.461338 -13.897172 -1.082033 10.574665 -6.980248 -0.544123 -18.492394 -22.245023 13.493545 17.761119 -32.662842 3.164374 6.311410 -16.772436 4.772978 0.000000 0.000000 0.000000 4.912032 8.640170 -11.600534 19.715241 -30.293375 5.389035 22.394094 2.240404 -22.076929 0.000000 0.000000 0.000000 -7.125000 0.000000 0.000000 -6.776786 53.538723 1.429686 0.000000 0.000000 0.000000 -6.553182 -11.660744 32.387427 -15.127525 -24.322018 -3.279129 -21.222244 -17.003109 -11.155904 0.000000 0.000000 0.000000 7.125000 0.000000 0.000000 4.136972 18.052712 2.657031
